PathFileType	4	(X/Y/Z)	Patient4_TMGait_0pt4_01_right_21.trc.trc
DataRate	CameraRate	NumFrames	NumMarkers	Units	OrigDataRate	OrigDataStartFrame	OrigNumFrames
79.096045197740	79.096045197740	4	33	mm	79.096045197740	71	       141
Frame#	Time	Sacral			L.Shoulder			Chest			R.Shoulder			Neck			R.ASIS			L.ASIS			R.Thigh.Superior			R.Thigh.Lateral			R.Thigh.Inferior			R.Patella			L.Thigh.Superior			L.Thigh.Lateral			L.Thigh.Inferior			L.Patella			L.Shank.Superior			L.Shank.Lateral			L.Shank.Inferior			R.Shank.Superior			R.Shank.Lateral			R.Shank.Inferior			R.Heel			R.Midfoot.Superior			R.Midfoot.Lateral			R.Toe			L.Heel			L.Midfoot.Lateral			L.Midfoot.Superior			L.Toe			L.Elbow			L.Wrist			R.Elbow			R.Wrist			
		X1	Y1	Z1	X2	Y2	Z2	X3	Y3	Z3	X4	Y4	Z4	X5	Y5	Z5	X6	Y6	Z6	X7	Y7	Z7	X8	Y8	Z8	X9	Y9	Z9	X10	Y10	Z10	X11	Y11	Z11	X12	Y12	Z12	X13	Y13	Z13	X14	Y14	Z14	X15	Y15	Z15	X16	Y16	Z16	X17	Y17	Z17	X18	Y18	Z18	X19	Y19	Z19	X20	Y20	Z20	X21	Y21	Z21	X22	Y22	Z22	X23	Y23	Z23	X24	Y24	Z24	X25	Y25	Z25	X26	Y26	Z26	X27	Y27	Z27	X28	Y28	Z28	X29	Y29	Z29	X30	Y30	Z30	X31	Y31	Z31	X32	Y32	Z32	X33	Y33	Z33	

71	27.945000000000	697.470096573813	994.480445363906	487.715468160234	844.151863044968	1418.375743251719	279.438261381442	973.233899836287	1351.972577737068	422.405446994655	919.295874223928	1432.724082720464	604.985695495871	869.425180821122	1483.467124408103	431.133529195891	935.721657943319	932.730590199317	582.758953168458	896.301560059699	952.926554429686	310.176974224218	929.284934731021	715.601455805964	556.313949145595	824.261977829521	622.996095270421	621.999957858906	880.687144228590	556.520483268780	540.801094836381	858.327726763037	472.480941567988	546.556850881723	977.845982993655	766.414958834069	340.501286618340	925.361926342544	634.917147929817	267.685864267794	1030.264429402413	580.054648887963	328.530278203002	1054.414765854652	515.745988015171	329.007135613560	1041.673546277749	442.318219505705	318.865633424274	979.309834721234	310.461293777112	269.196014268409	1068.731211013362	214.657185359621	326.677366875567	817.104274758348	388.621007142316	555.247454637311	728.991932717026	298.089287943118	616.836274297642	755.852885030134	197.507114558599	555.211376339127	605.119591835999	41.104752042673	519.032745933993	771.907461475178	95.258396392842	568.499978393985	680.353304895909	35.308977215802	601.098762646129	888.667662712240	43.334218408247	611.269194305181	988.263233922039	38.776681746005	367.429807449570	1063.059937459186	40.649974890991	288.238928862339	1134.325482894049	116.658612875742	309.107014820382	1267.797446052775	84.636847001654	285.466778564790	733.667353018689	1077.023817942823	194.565243649290	740.818228952986	818.257274223594	172.118460890508	1052.669411211471	1113.530621868798	702.593231061593	1264.808560925340	1139.087687992692	569.020237582593	
72	27.957642857143	701.435770070589	992.618570246885	485.155526816392	846.012470955650	1416.429757018678	276.533170284557	975.115771820977	1351.129171802763	420.001509612724	920.179611599651	1431.945011547501	602.314723595984	870.545012723407	1482.071827543136	428.200651815985	939.321314178652	931.158323694172	581.458571271813	901.187690670157	951.182068514732	308.765141148727	932.204285184086	713.742318328763	555.249233272181	826.265138298166	621.580988550945	620.413983218529	882.691615395137	554.639389106152	539.494385529358	859.607997996775	469.952267011308	545.161660473556	982.701046495287	764.496374051972	339.114538853145	928.701363739563	632.956166054885	267.242154181340	1033.912149258430	578.176812477373	327.488330320855	1056.469234108817	512.719027924371	328.662852876924	1043.196225242546	439.072773138634	318.607817842318	978.804164609603	307.984698734298	269.488060436991	1066.697004990461	211.139216784106	327.347760690607	816.878375837214	386.765474987742	553.997041330678	727.343141495245	297.753071432916	615.964524134457	752.535690077905	196.642428667779	554.658164077577	599.994749331458	41.201107997140	519.072358019454	766.972372962146	95.199915081588	568.377111019932	675.294833215739	35.303237226685	601.082966140521	883.664179919036	42.981579982510	611.387285981576	982.575401605864	38.082001919896	368.911271783224	1056.744143438660	38.420955097073	288.919075248688	1130.515604086392	111.910467533620	310.142260554502	1263.015433616914	75.789374213584	285.125555079503	736.704460906454	1074.645899153693	192.114618021832	745.454601055180	815.887393064655	169.660201547634	1052.671233027795	1112.066075005640	700.585142306851	1265.151391071714	1133.667188963940	566.564511579176	
73	27.970285714286	705.361668104557	990.855859934013	482.513774566767	848.088741367471	1414.469903902403	273.410118394995	977.107674468473	1350.344329845993	417.482355497010	921.096486036543	1431.354575948604	599.449198583979	871.789012747618	1480.759147868610	425.012935073374	942.867198429292	929.673694557101	580.071698134735	906.099295744793	949.661116956897	307.324063562046	935.499275705897	712.002018230981	554.020936045933	828.911848427897	620.079789704725	618.638074981407	885.523323411261	552.766444770281	537.974914793048	861.874595329815	467.151014108313	543.668006522755	987.666434973208	762.909575205045	337.954669447651	932.664978731374	631.545011738029	266.602992059775	1037.887056014210	576.704923494152	326.638298434849	1058.930670656685	510.129712604873	328.370218052749	1045.120700379560	436.224346378235	318.331540879667	978.859205286066	305.975166828893	269.369141406157	1064.850757683297	207.996087535723	327.919554674047	817.334108161447	384.814604903538	552.635907685265	726.187592055480	297.566747211108	614.963463838814	749.537281292935	195.880909372340	554.046030910513	594.896034564648	41.690710015900	519.121343071955	762.183465998174	95.206252980060	568.265916566614	670.288442361643	35.515574124844	601.055450103541	878.728987999501	42.541364718356	611.531769385153	976.758002145779	37.631205634626	369.952252094629	1050.493311518116	36.641957767728	289.358120179200	1126.588834576833	107.717022943228	311.185293430224	1258.181250103479	67.749719850195	285.125401984842	740.390031187520	1072.100596694947	189.375864232178	750.936272896695	813.368740291585	166.939845880978	1052.172705074207	1110.604296107489	698.795064063759	1265.097520315529	1127.286468081718	564.490833293473	
74	27.982928571429	709.174247139097	989.279745630740	479.834617082059	850.385311355298	1412.574367745894	270.099568188497	979.208924178092	1349.664145158930	414.860945950159	922.101992529830	1431.029777982022	596.394827705438	873.201129730669	1479.602364824335	421.582258874137	946.291318467317	928.368249076150	578.595065453175	910.925395794620	948.468345042785	305.841072327236	939.155211312911	710.482626459760	552.604025545437	832.263017447637	618.543718912877	616.681491279368	889.278113330426	550.976839613132	536.262391098825	865.277670948848	464.133904224040	542.153832933587	992.657185725778	761.756366580531	336.974034547401	937.142547140565	630.727825646947	265.749886791494	1042.076418284800	575.682894566489	325.930127925019	1061.749707396813	508.084573666923	328.083243661327	1047.404538224116	433.875242680371	318.021981454080	979.479369712999	304.513164850510	268.846859855310	1063.244631804808	205.354745215312	328.369910311398	818.595854400081	382.838606847028	551.222684501870	725.627626827111	297.636360860604	613.852126276389	746.955511004345	195.327195633382	553.402877398578	589.874959928800	42.790373287211	519.173748559253	757.617726358308	95.312067323821	568.183361385134	665.366573627193	36.074856142152	601.010822324620	873.876663138756	42.011906988934	611.700761766404	971.056545433892	37.406010004696	370.580351595301	1044.536511246356	35.353212785095	289.578305166171	1122.638301933336	104.271325694746	312.158742509032	1253.430808031764	60.967882447964	285.380982202599	744.719368999705	1069.479261373747	186.369271434619	757.247138806349	810.790509395617	163.994073742305	1051.146909212882	1109.228107956572	697.226585324442	1264.557701930996	1119.955649158568	562.820153979473	
